<svg version="1.1"
     baseProfile="full"
     width="80" height="80"
     xmlns="http://www.w3.org/2000/svg"
     viewBox="0 0 100 100">
     <rect x="0" y="0" width="100" height="100" fill="transparent"></rect><path fill-rule="evenodd" clip-rule="evenodd" d="M100.004,78.273c-0.11,0.395-0.323,0.793-0.313,1.184 c0.088,3.344-1.42,6.118-3.309,8.569c-1.931,2.507-4.101,4.902-6.503,6.927c-2.416,2.037-5.255,3.503-8.575,3.546 c-1.34,0.018-2.686,0.335-4.017,0.27c-1.91-0.094-3.917-0.091-5.684-0.716c-2.225-0.787-4.402-1.944-6.329-3.335 c-4.202-3.033-7.895-6.683-11.253-10.678c-0.244-0.29-0.599-0.483-0.882-0.706c0.594-2.536,1.3-5.016,1.734-7.546 c0.452-2.638,0.709-5.317,0.923-7.99c0.145-1.811,0.15-1.927,1.921-1.931c0.629-0.001,1.264,0.055,1.887-0.011 c2.075-0.218,3.292,1.038,4.463,2.523c0.527,0.668,1.327,1.104,1.968,1.685c1.282,1.162,2.567,2.322,3.801,3.536 c1.785,1.757,3.494,3.598,5.298,5.336c1.593,1.535,3.233,3.027,4.935,4.435c0.581,0.482,1.41,0.649,2.293,1.034 c0.81-0.73,1.73-1.587,2.681-2.407c0.643-0.554,0.58-1.034-0.005-1.581c-1.752-1.642-3.489-3.303-5.232-4.955 c-0.754-0.714-1.516-1.42-2.266-2.14c-2.686-2.582-5.235-5.334-8.086-7.706c-2.804-2.332-3.786-5.161-3.607-8.719 c0.166-3.304,0.125-6.621,0.104-9.932c-0.007-1.205,0.252-1.778,1.615-1.771c2.885,0.014,5.554,0.89,8.15,1.968 c2.884,1.197,5.329,3.078,7.569,5.344c2.748,2.78,5.734,5.317,8.652,7.918c3.914,3.49,6.486,7.756,7.396,13.029 c0.176,1.02,0.444,2.023,0.67,3.035C100.004,77.083,100.004,77.679,100.004,78.273z M90.996,87.416 c-0.015-0.081-0.032-0.435-0.151-0.748c-0.67-1.764-1.855-2.891-3.589-3.7c-1.259-0.587-2.091-0.31-2.921,0.456 c-0.716,0.66-0.874,2.724-0.162,3.304c1.28,1.044,1.879,2.891,3.945,3.075C89.577,89.933,90.981,89.188,90.996,87.416z"></path> <path fill-rule="evenodd" clip-rule="evenodd" d="M0.004,76.488c0.417-1.271,0.778-2.563,1.262-3.806 c0.941-2.415,2.078-4.717,3.867-6.627c2.187-2.334,4.32-4.723,6.506-7.058c1.026-1.097,2.292-2,3.144-3.216 c1.029-1.469,2.212-1.1,3.442-0.719c1.749,0.542,3.372,1.305,5.356,0.988c1.409-0.225,2.931,0.334,4.407,0.497 c1.271,0.14,2.548,0.272,3.825,0.299c0.914,0.021,1.369,0.339,1.304,1.311c-0.027,0.395-0.037,0.797,0.003,1.189 c0.185,1.847-0.185,3.256-1.777,4.578c-1.931,1.603-3.359,3.823-5.127,5.651c-2.17,2.244-4.46,4.369-6.714,6.528 c-1.25,1.197-2.615,2.282-3.774,3.564c-0.759,0.84-1.289,1.917-1.817,2.942c-0.126,0.245,0.062,0.797,0.277,1.064 c0.684,0.852,1.449,1.635,2.309,2.583c2.33-2.171,4.539-4.202,6.714-6.269c1.412-1.342,2.792-2.719,4.155-4.113 c1.589-1.625,3.124-3.306,4.722-4.921c1.319-1.333,2.627-2.696,4.085-3.857c0.58-0.461,1.542-0.551,2.338-0.576 c4.647-0.151,9.297-0.235,13.946-0.335c0.235-0.005,0.472,0.044,0.802,0.078c0.415,2.678,0.034,5.198-1.208,7.547 c-1.217,2.302-2.5,4.57-3.828,6.808c-0.381,0.643-1.007,1.136-1.534,1.684c-3.871,4.027-7.584,8.234-11.676,12.011 c-2.713,2.505-6.018,4.264-9.784,4.828c-0.777,0.117-1.508,0.564-2.26,0.858c-2.811,0-5.62,0-8.43,0 c-0.206-0.283-0.353-0.665-0.626-0.833c-1.283-0.791-2.712-1.375-3.881-2.308c-1.958-1.563-3.823-3.266-5.604-5.038 c-1.876-1.867-3.282-4.083-3.876-6.751c-0.195-0.874-0.366-1.752-0.547-2.629C0.004,80.457,0.004,78.472,0.004,76.488z M13.106,84.421c-2.272,0.344-4.532,2.389-4.674,4.673c-0.05,0.802,0.41,1.896,1.004,2.418c0.813,0.714,2.009,0.702,2.889-0.125 c0.843-0.793,1.787-1.612,2.269-2.627c0.432-0.91,0.514-2.147,0.316-3.15C14.81,85.109,13.738,84.811,13.106,84.421z"></path> <path fill-rule="evenodd" clip-rule="evenodd" d="M79.946,0c0.35,0.188,0.712,0.556,1.05,0.535 c3.614-0.228,6.471,1.481,9.135,3.678c1.785,1.472,3.654,2.868,5.253,4.532c1.003,1.043,1.889,2.43,2.277,3.822 c0.754,2.708,1.38,5.511,1.553,8.308c0.109,1.768-0.5,3.671-1.13,5.382c-1.738,4.72-4.658,8.593-8.424,11.863 c-1.974,1.714-3.746,3.679-5.551,5.588c-0.658,0.696-1.211,0.766-2.145,0.542c-2.33-0.559-4.705-0.994-7.085-1.24 c-2.87-0.297-5.763-0.349-8.702-0.51c-0.504-1.892-0.987-3.786-0.057-5.508c0.721-1.335,1.844-2.466,2.887-3.592 c1.665-1.797,3.398-3.53,5.128-5.264c1.72-1.723,3.513-3.371,5.197-5.13c1.667-1.742,3.217-3.601,4.858-5.369 c1.076-1.16,0.135-2.031-0.479-2.713c-0.653-0.724-1.527-1.731-2.698-0.608c-2.097,2.01-4.223,3.987-6.279,6.039 c-3.214,3.207-6.374,6.471-9.57,9.697c-0.737,0.743-1.506,1.456-2.3,2.133c-0.321,0.274-0.74,0.574-1.126,0.593 c-3.352,0.167-6.706,0.274-10.059,0.396c-1.751,0.064-3.511,0.034-5.249,0.218c-0.853,0.09-1.118-0.223-1.049-0.92 c0.116-1.166,0.288-2.331,0.532-3.475c1.075-5.027,3.686-9.052,7.449-12.447c2.366-2.134,4.422-4.626,6.649-6.927 c2.86-2.956,5.683-6.022,9.663-7.388c2.165-0.743,4.451-1.114,6.673-1.687C76.697,0.46,77.003,0.188,77.33,0 C78.202,0,79.074,0,79.946,0z M85.559,15.308c1.671-0.263,4.527-2.858,4.403-4.462c-0.074-0.961-0.695-2.234-1.458-2.696 c-1.032-0.625-2.268-0.258-2.969,1.078c-0.277,0.527-0.748,1.043-1.257,1.33c-1.306,0.735-1.414,2.048-0.995,3.062 C83.595,14.375,84.769,14.759,85.559,15.308z"></path> <path fill-rule="evenodd" clip-rule="evenodd" d="M42.504,33.654c-0.983,0.173-1.837,0.292-2.678,0.477 c-2.16,0.477-3.676-0.779-5.128-2.056c-1.731-1.522-3.374-3.153-5.037-4.757c-1.749-1.687-3.469-3.406-5.216-5.096 c-1.822-1.762-3.63-3.542-5.51-5.237c-0.685-0.617-1.521-0.75-2.307,0.053c-0.43,0.44-1.027,0.706-1.482,1.126 c-0.993,0.919-0.802,1.814,0.191,2.729c1.81,1.669,3.475,3.502,5.244,5.219c0.675,0.655,1.53,1.117,2.201,1.775 c3.028,2.973,6.063,5.943,8.989,9.02c0.583,0.613,0.958,1.678,0.992,2.552c0.089,2.296-0.085,4.603-0.111,6.905 c-0.028,2.485-0.006,4.971-0.006,7.824c-2.192-0.17-4.153-0.156-6.05-0.505c-3.617-0.665-6.714-2.627-9.423-5.008 c-3.149-2.769-6.013-5.887-8.916-8.938c-1.617-1.699-3.746-2.958-4.635-5.313c-0.803-2.125-1.636-4.244-2.297-6.416 c-0.365-1.197-0.656-2.523-0.539-3.747c0.227-2.384-0.178-4.897,1.307-7.085c1.114-1.64,1.928-3.497,3.077-5.107 c0.892-1.25,2.041-2.329,3.174-3.372c1.267-1.166,2.53-2.423,4.005-3.242c1.628-0.905,3.457-1.713,5.27-1.924 c2.787-0.325,5.642-0.245,8.454-0.078c3.091,0.184,5.757,1.634,8.181,3.556c1.836,1.456,3.76,2.81,5.501,4.375 c1.889,1.696,3.618,3.581,5.4,5.399c0.15,0.153,0.306,0.467,0.251,0.638c-0.388,1.229-0.83,2.438-1.252,3.655 c-0.095,0.275-0.224,0.548-0.26,0.833c-0.37,2.886-0.729,5.773-1.078,8.663C42.694,31.581,42.61,32.6,42.504,33.654z M13.431,18.25 c1.896-0.015,3.499-2.024,2.501-3.375c-0.944-1.278-1.545-3.045-3.509-3.413c-1.428-0.267-3.238,0.849-3.313,2.351 C9.026,15.508,11.71,18.264,13.431,18.25z"></path> <path fill-rule="evenodd" clip-rule="evenodd" d="M59.396,49.438c0,2.777-0.034,5.554,0.017,8.33 c0.021,1.092-0.351,1.461-1.429,1.473c-5.361,0.057-10.721,0.205-16.081,0.285c-2.866,0.042-2.592,0.19-2.55-2.652 c0.04-2.754,0.245-5.507,0.253-8.261c0.007-2.214-0.147-4.43-0.274-6.643c-0.077-1.358,0.527-1.804,1.81-1.842 c5.535-0.167,11.067-0.409,16.6-0.631c1.106-0.044,1.705,0.322,1.675,1.612C59.351,43.883,59.396,46.661,59.396,49.438z M49.225,56.231c3.332,0.187,7.097-3.186,6.931-7.22c-0.142-3.44-2.754-5.702-6.599-5.923c-3.788-0.218-6.896,3.536-6.914,6.796 C42.623,53.32,45.703,56.232,49.225,56.231z"></path></svg>