<svg version="1.1"
     baseProfile="full"
     width="80" height="80"
     xmlns="http://www.w3.org/2000/svg"
     viewBox="0 0 100 100">
<rect x="0" y="0" width="100" height="100" fill="transparent"></rect><path fill-rule="evenodd" clip-rule="evenodd" d="M52.738,99.876c-0.049-0.586-0.146-0.977-0.146-1.465 c-0.098-5.958-0.146-11.915-0.244-17.873c-0.049-6.25-0.146-12.501-0.244-18.849c-0.049-4.297,0-8.692-0.244-12.989 c-0.195-3.711,1.953-6.25,4.492-7.618c3.37-1.758,6.543-3.711,9.034-7.032c0.781-0.977,1.514-2.149,2.295-3.125 c1.025-1.27,0.146-2.344-0.439-3.027c-1.709-1.954-3.418-3.809-5.518-5.274c-2.148-1.465-4.444-2.051-6.739-2.344 c-3.76-0.489-7.569-0.391-11.378,0.391c-3.076,0.586-5.811,2.148-8.448,3.906c-1.855,1.27-3.76,2.93-4.444,5.762 c0.928,2.539,2.833,4.493,4.786,6.348c2.002,2.051,4.444,3.027,6.739,4.2c2.002,1.074,3.956,2.246,4.786,4.59 c0.488,1.27,0.391,2.93,0.488,4.395c0.049,1.465,0,2.93,0,4.297c0,2.149,0.049,4.297,0.049,6.348 c-0.049,2.149-0.146,4.395-0.146,6.543c0,3.614,0.146,7.325,0.195,10.938c0.098,6.739,0.146,13.575,0.195,20.314 c0,0.391,0,0.879-0.049,1.66c-1.807-1.953-3.418-3.711-4.932-5.469c-0.293-0.293-0.244-0.977-0.293-1.465 c-1.025-6.25-2.686-12.208-5.274-17.774c-1.855-3.907-3.271-8.106-5.029-12.11c-0.635-1.465-1.563-2.93-2.442-4.395 c-0.781-1.27-1.27-2.441-0.781-4.102c0.879-2.833,1.758-5.762,1.416-8.888c-0.195-2.051-0.488-4.199-1.025-6.153 c-0.195-0.684-1.318-1.465-2.002-1.367c-2.832,0.195-5.762,0.195-8.399,1.172c-2.1,0.684-3.907,2.442-5.713,3.907 c-1.318,1.074-2.441,2.441-3.516,3.809c-1.66,2.051-1.367,4.004,0.782,5.372c2.344,1.563,4.492,3.516,7.178,4.297 c1.66,0.586,3.271,1.465,4.932,1.563c1.367,0.195,2.051,0.977,2.686,1.953c1.025,1.563,2.002,3.223,2.832,4.981 c1.904,3.907,3.711,7.911,4.346,12.501c0.342,2.539,1.221,4.883,1.807,7.422c0.049,0.195,0.098,0.391-0.049,0.684 C22.902,74.191,11.524,62.472,0,50.557c1.025-1.074,1.855-1.953,2.686-2.832c1.612-1.661,3.125-3.321,4.688-4.981 c1.465-1.563,2.979-2.93,4.444-4.395c1.416-1.465,2.783-2.93,4.15-4.395c1.661-1.661,3.321-3.418,4.981-5.079 c1.855-1.856,3.711-3.711,5.518-5.567s3.613-3.711,5.42-5.665c2.539-2.637,5.029-5.372,7.569-8.008 c2.295-2.344,4.639-4.59,6.934-6.934c0.781-0.781,1.465-1.758,2.295-2.441c0.244-0.293,0.879-0.293,1.123-0.098 c1.758,1.465,3.467,3.027,5.127,4.688c2.002,1.856,3.956,3.809,5.958,5.665c2.002,1.953,4.004,3.711,5.958,5.567 c2.148,1.953,4.297,4.004,6.397,5.958c2.1,1.953,4.15,3.809,6.202,5.762c2.686,2.637,5.371,5.273,8.057,7.813 c1.318,1.27,2.734,2.441,4.053,3.711c2.491,2.442,4.981,4.786,7.374,7.227c1.465,1.465,1.417,1.563-0.049,3.125 c-2.197,2.344-4.443,4.688-6.641,7.032c-2.051,2.344-4.053,4.688-6.104,6.934c-2.198,2.441-4.395,4.786-6.592,7.227 c-1.514,1.563-2.979,3.32-4.493,4.883c-2.1,2.246-4.249,4.395-6.299,6.739c-0.928,1.074-1.758,2.246-2.588,3.418 c-0.146-0.098-0.342-0.293-0.488-0.391c0.146-0.781,0.293-1.563,0.488-2.344c1.123-4.59,2.002-9.278,3.613-13.673 c1.465-4.102,3.077-8.204,6.006-11.427c1.123-1.27,2.246-1.66,3.565-1.953c3.125-0.586,5.957-2.149,8.545-4.004 c1.172-0.879,1.904-2.539,2.783-4.004c0.146-0.195,0.146-0.879,0-1.172c-1.758-2.832-4.004-4.98-6.592-6.739 c-2.295-1.563-4.736-2.148-7.227-2.93c-0.977-0.293-1.953-0.488-2.979-0.684c-2.051-0.391-3.711,0.977-4.2,3.32 c-0.781,3.907-0.537,7.715,0.586,11.427c0.342,0.977,0.635,2.051,0.928,3.125c0.049,0.196,0,0.586-0.098,0.782 c-2.1,4.883-4.248,9.668-6.299,14.552c-1.611,4.004-3.271,7.911-4.492,12.11c-1.025,3.418-2.198,6.934-2.247,10.646 c-0.049,1.465-0.635,2.637-1.709,3.614c-1.025,0.879-1.855,1.953-2.783,3.027C53.373,99.388,53.129,99.583,52.738,99.876z"></path></svg>