<svg version="1.1"
     baseProfile="full"
     width="80" height="80"
     xmlns="http://www.w3.org/2000/svg"
     viewBox="0 0 100 100">
<rect x="0" y="0" width="100" height="100" fill="transparent"></rect><path fill-rule="evenodd" clip-rule="evenodd" fill="none" d="M4.279,52.494c0-17.398,0-34.797,0-52.256 c16.468,0,32.938,0,49.407,0c-0.031,0.104-0.026,0.26-0.095,0.304c-1.478,0.944-2.973,1.862-4.439,2.823 C48.899,3.53,48.6,3.869,48.596,4.131c-0.039,3.095-0.025,6.191-0.025,9.393c1.991-1.154,3.846-2.209,5.672-3.31 c0.264-0.159,0.54-0.534,0.557-0.822c0.063-1.101,0.038-2.207,0.013-3.311c-0.046-1.948-0.117-3.896-0.177-5.844 c13.856,0,27.712,0,41.568,0c0,21.457,0,42.914,0,64.37c-0.123-0.378-0.348-0.754-0.353-1.133 c-0.033-2.414,0.038-4.83-0.036-7.241c-0.045-1.505-0.28-3.004-0.433-4.527c-1.535-0.072-3.008-0.141-4.586-0.215 c0,2.271-0.029,4.594,0.012,6.917c0.023,1.37,0.188,2.737,0.216,4.107c0.005,0.282-0.246,0.69-0.498,0.839 c-2.793,1.656-5.595,3.297-8.424,4.892c-2.244,1.266-4.538,2.445-6.794,3.688c-3.182,1.752-6.337,3.554-9.543,5.264 c-0.428,0.229-1.149,0.208-1.61,0.012c-0.837-0.357-1.558-0.397-2.331,0.085c-1.057,0.661-2.131,1.294-3.196,1.943 c-0.549,0.334-1.093,0.676-1.742,1.078c0.565,0.327,0.961,0.564,1.366,0.789c1.219,0.677,2.458,1.322,3.659,2.03 c1.48,0.873,2.927,1.723,4.554,0.295c0.36-0.316,0.768-0.595,1.189-0.824c2.367-1.279,4.744-2.54,7.119-3.803 c0.374-0.199,0.769-0.356,1.135-0.565c2.005-1.148,3.996-2.323,6.008-3.458c2.56-1.443,5.142-2.845,7.704-4.284 c2.203-1.237,4.39-2.5,6.584-3.751c0,11.147,0,22.294,0,33.491c-15.519,0-31.037,0-46.556,0c1.192-0.873,2.316-1.869,3.594-2.591 c1.661-0.936,2.745-1.958,2.493-4.117c-0.287-2.476-0.246-4.99-0.341-7.487c-0.016-0.412-0.002-0.825-0.002-1.484 c-2.038,1.429-3.875,2.666-5.637,4.001c-0.345,0.261-0.555,0.905-0.561,1.376c-0.046,3.433-0.022,6.867-0.021,10.302 c-14.965,0-29.929,0-44.893,0c0-11.243,0-22.486,0-33.729c0.178,0.066,0.373,0.106,0.533,0.203 c2.005,1.208,3.98,2.467,6.013,3.624c1.721,0.979,3.516,1.828,5.264,2.759c2.727,1.453,5.463,2.888,8.154,4.405 c2.121,1.196,4.17,2.519,6.27,3.756c1.4,0.825,2.883,1.521,4.232,2.419c1.129,0.751,2.059,0.565,3.137-0.055 c4.113-2.364,8.251-4.687,12.395-6.999c0.774-0.432,1.647-0.685,2.421-1.117c2.105-1.176,4.172-2.42,6.273-3.603 c1.089-0.614,2.225-1.142,3.327-1.734c1.254-0.674,2.465-1.438,3.75-2.049c1.21-0.577,2.149-1.571,2.116-2.459 c-0.089-2.339-0.205-4.679-0.238-7.021c-0.12-8.488-0.194-16.977-0.345-25.465c-0.009-0.525-0.397-1.234-0.832-1.527 c-1.129-0.76-2.363-1.377-3.598-1.961c-0.369-0.174-0.956-0.206-1.314-0.033c-1.65,0.797-3.255,1.69-4.951,2.588 c1.353,0.914,2.634,1.72,3.839,2.626c0.332,0.25,0.603,0.789,0.624,1.209c0.146,2.991,0.28,5.985,0.302,8.979 c0.045,5.856,0.035,11.714-0.024,17.569c-0.005,0.456-0.467,1.071-0.889,1.328c-1.267,0.772-2.633,1.378-3.934,2.096 c-3.59,1.979-7.168,3.979-10.748,5.977c-1.101,0.613-2.179,1.268-3.29,1.861c-2.06,1.1-4.125,2.19-6.212,3.241 c-0.585,0.295-1.169,0.371-1.859-0.04c-1.568-0.93-3.233-1.694-4.843-2.557c-3.255-1.743-6.493-3.521-9.754-5.255 c-0.992-0.528-2.067-0.9-3.05-1.443c-2.048-1.128-3.999-2.45-6.104-3.45c-1.84-0.875-1.919-0.881-1.861-2.915 c0.084-2.954,0.021-5.913,0.021-8.973C7.429,52.494,5.854,52.494,4.279,52.494z M95.158,45.992 c0.039-0.393,0.093-0.659,0.088-0.925c-0.083-4.02-0.148-8.041-0.298-12.058c-0.017-0.438-0.445-1.017-0.847-1.255 c-2.168-1.287-4.386-2.491-6.59-3.716c-1.554-0.863-3.111-1.724-4.673-2.57c-3.369-1.825-6.725-3.674-10.12-5.449 c-2.75-1.438-5.534-2.815-8.342-4.133c-0.487-0.229-1.259-0.214-1.756,0.009c-1.615,0.725-3.171,1.583-4.736,2.417 c-3.53,1.882-7.044,3.794-10.579,5.669c-2.574,1.365-5.189,2.653-7.75,4.044c-2.152,1.169-4.224,2.488-6.39,3.628 c-0.57,0.299-0.88,0.507-0.879,1.172c0.013,11.045,0.007,22.09,0.023,33.134c0,0.314,0.122,0.774,0.345,0.916 c0.879,0.558,1.819,1.025,2.744,1.511c1.025,0.539,2.037,1.106,3.092,1.581c1.547,0.695,3.041,1.854,4.843,0.457 c1.098-0.852,2.322-1.541,3.806-2.51c-0.37-0.21-0.635-0.367-0.906-0.515c-1.888-1.034-3.725-2.179-5.68-3.059 c-1.502-0.675-2.044-1.712-2.043-3.236c0.007-8.194-0.014-16.389,0.035-24.583c0.003-0.583,0.356-1.329,0.797-1.708 c0.822-0.71,1.798-1.263,2.763-1.783c2.517-1.354,5.061-2.655,7.596-3.974c0.453-0.235,0.923-0.439,1.37-0.686 c2.118-1.174,4.23-2.354,6.342-3.539c1.262-0.707,2.566-1.351,3.765-2.153c1.925-1.288,3.68-1.56,5.788-0.175 c2.521,1.655,5.269,2.967,7.932,4.4c0.786,0.423,1.647,0.707,2.427,1.139c2.076,1.148,4.111,2.372,6.192,3.511 c2.036,1.115,4.115,2.149,6.156,3.256c0.231,0.125,0.446,0.477,0.476,0.745c0.146,1.322,0.281,2.65,0.319,3.979 c0.052,1.78-0.029,3.564,0.048,5.343c0.016,0.382,0.436,1.041,0.715,1.066C92.515,46.056,93.816,45.992,95.158,45.992z M9.008,47.345c0.137-1.623,0.336-3.172,0.382-4.727c0.07-2.349,0.1-4.705,0.005-7.051c-0.036-0.871,0.426-1.24,0.982-1.549 c2.311-1.283,4.654-2.509,6.981-3.762c3.054-1.644,6.078-3.346,9.165-4.925c2.743-1.403,5.554-2.675,8.339-3.996 c0.266-0.126,0.647-0.345,0.836-0.249c1.272,0.649,2.516,1.357,3.75,2.078c0.682,0.398,1.335,0.612,2.064,0.117 c0.763-0.518,1.537-1.018,2.316-1.511c0.768-0.486,1.547-0.953,2.489-1.531c-2.926-1.52-5.619-2.916-8.309-4.317 c-0.304-0.158-0.579-0.428-0.898-0.491c-0.527-0.103-1.177-0.282-1.604-0.075c-1.801,0.872-3.529,1.894-5.304,2.823 c-1.204,0.63-2.464,1.152-3.659,1.798c-3.801,2.053-7.561,4.182-11.379,6.201c-2.958,1.563-5.991,2.984-8.969,4.512 c-1.026,0.527-1.601,1.313-1.577,2.621c0.08,4.233,0.03,8.468,0.03,12.703c0,0.423,0,0.847,0,1.331 C6.191,47.345,7.592,47.345,9.008,47.345z"></path> <path fill-rule="evenodd" clip-rule="evenodd" d="M4.279,52.494c1.575,0,3.149,0,4.823,0c0,3.06,0.063,6.019-0.021,8.973 c-0.058,2.034,0.021,2.041,1.861,2.915c2.106,1,4.057,2.322,6.104,3.45c0.983,0.542,2.058,0.915,3.05,1.443 c3.261,1.734,6.499,3.512,9.754,5.255c1.61,0.862,3.275,1.626,4.843,2.557c0.69,0.41,1.274,0.334,1.859,0.04 c2.086-1.05,4.152-2.141,6.212-3.241c1.111-0.594,2.189-1.248,3.29-1.861c3.58-1.997,7.158-3.998,10.748-5.977 c1.301-0.718,2.667-1.324,3.934-2.096c0.422-0.257,0.884-0.872,0.889-1.328c0.059-5.855,0.07-11.713,0.024-17.569 c-0.022-2.994-0.156-5.987-0.302-8.979c-0.021-0.42-0.292-0.959-0.624-1.209c-1.205-0.906-2.486-1.713-3.839-2.626 c1.696-0.898,3.3-1.791,4.951-2.588c0.358-0.173,0.945-0.142,1.314,0.033c1.235,0.583,2.469,1.201,3.598,1.961 c0.435,0.292,0.822,1.001,0.832,1.527c0.15,8.488,0.225,16.977,0.345,25.465c0.033,2.341,0.149,4.681,0.238,7.021 c0.034,0.888-0.906,1.883-2.116,2.459c-1.284,0.611-2.495,1.375-3.75,2.049c-1.102,0.592-2.237,1.121-3.327,1.734 c-2.101,1.183-4.168,2.427-6.273,3.603c-0.774,0.432-1.647,0.685-2.421,1.117c-4.144,2.312-8.281,4.634-12.395,6.999 c-1.078,0.62-2.008,0.807-3.137,0.055c-1.349-0.899-2.832-1.594-4.232-2.419c-2.099-1.237-4.148-2.56-6.27-3.756 c-2.691-1.517-5.428-2.953-8.154-4.405c-1.749-0.932-3.543-1.78-5.264-2.759c-2.033-1.157-4.008-2.416-6.013-3.624 c-0.16-0.097-0.354-0.137-0.533-0.203C4.279,61.837,4.279,57.165,4.279,52.494z"></path> <path fill-rule="evenodd" clip-rule="evenodd" d="M96.204,66.746c-2.194,1.251-4.382,2.515-6.584,3.751 c-2.562,1.438-5.144,2.841-7.704,4.284c-2.013,1.135-4.003,2.31-6.008,3.458c-0.366,0.209-0.761,0.367-1.135,0.565 c-2.375,1.263-4.752,2.523-7.119,3.803c-0.422,0.229-0.829,0.507-1.189,0.824c-1.627,1.427-3.074,0.577-4.554-0.295 c-1.201-0.708-2.44-1.353-3.659-2.03c-0.405-0.225-0.801-0.462-1.366-0.789c0.649-0.402,1.193-0.744,1.742-1.078 c1.065-0.649,2.14-1.283,3.196-1.943c0.772-0.482,1.494-0.443,2.331-0.085c0.461,0.197,1.182,0.217,1.61-0.012 c3.206-1.71,6.361-3.512,9.543-5.264c2.257-1.243,4.55-2.422,6.794-3.688c2.829-1.594,5.631-3.235,8.424-4.892 c0.252-0.149,0.503-0.557,0.498-0.839c-0.027-1.37-0.192-2.737-0.216-4.107c-0.041-2.323-0.012-4.646-0.012-6.917 c1.578,0.074,3.051,0.143,4.586,0.215c0.153,1.522,0.388,3.022,0.433,4.527c0.074,2.411,0.003,4.827,0.036,7.241 c0.005,0.379,0.23,0.755,0.353,1.133C96.204,65.321,96.204,66.033,96.204,66.746z"></path> <path fill-rule="evenodd" clip-rule="evenodd" d="M49.172,100.237c-0.001-3.435-0.025-6.869,0.021-10.302 c0.006-0.471,0.215-1.115,0.561-1.376c1.762-1.335,3.6-2.572,5.637-4.001c0,0.659-0.013,1.072,0.002,1.484 c0.096,2.498,0.054,5.012,0.341,7.487c0.252,2.16-0.832,3.182-2.493,4.117c-1.278,0.722-2.402,1.718-3.594,2.591 C49.489,100.237,49.331,100.237,49.172,100.237z"></path> <path fill-rule="evenodd" clip-rule="evenodd" d="M54.635,0.238c0.061,1.948,0.131,3.896,0.177,5.844 c0.025,1.104,0.049,2.21-0.013,3.311c-0.017,0.289-0.293,0.664-0.557,0.822c-1.826,1.101-3.681,2.156-5.672,3.31 c0-3.202-0.014-6.298,0.025-9.393c0.004-0.263,0.304-0.601,0.556-0.767c1.467-0.961,2.962-1.878,4.439-2.823 c0.068-0.043,0.064-0.2,0.095-0.304C54.002,0.238,54.319,0.238,54.635,0.238z"></path> <path fill-rule="evenodd" clip-rule="evenodd" d="M95.158,45.992c-1.342,0-2.643,0.064-3.929-0.051 c-0.279-0.025-0.699-0.685-0.715-1.066c-0.077-1.778,0.004-3.563-0.048-5.343c-0.039-1.329-0.173-2.657-0.319-3.979 c-0.029-0.268-0.245-0.619-0.476-0.745c-2.041-1.106-4.12-2.141-6.156-3.256c-2.081-1.139-4.116-2.363-6.192-3.511 c-0.78-0.432-1.642-0.715-2.427-1.139c-2.664-1.433-5.412-2.745-7.932-4.4c-2.108-1.385-3.863-1.113-5.788,0.175 c-1.198,0.802-2.503,1.446-3.765,2.153c-2.112,1.184-4.224,2.365-6.342,3.539c-0.446,0.247-0.917,0.451-1.37,0.686 c-2.535,1.319-5.079,2.621-7.596,3.974c-0.965,0.52-1.941,1.072-2.763,1.783c-0.441,0.38-0.794,1.125-0.797,1.708 c-0.049,8.194-0.028,16.389-0.035,24.583c-0.001,1.524,0.542,2.561,2.043,3.236c1.956,0.88,3.792,2.025,5.68,3.059 c0.271,0.147,0.537,0.304,0.906,0.515c-1.484,0.969-2.708,1.658-3.806,2.51c-1.802,1.397-3.295,0.239-4.843-0.457 c-1.055-0.474-2.067-1.042-3.092-1.581c-0.925-0.486-1.864-0.953-2.744-1.511c-0.224-0.142-0.345-0.602-0.345-0.916 c-0.017-11.044-0.01-22.089-0.023-33.134c-0.001-0.665,0.309-0.873,0.879-1.172c2.166-1.14,4.237-2.459,6.39-3.628 c2.56-1.391,5.175-2.679,7.75-4.044c3.535-1.875,7.048-3.787,10.579-5.669c1.565-0.834,3.122-1.692,4.736-2.417 c0.497-0.223,1.269-0.237,1.756-0.009c2.808,1.318,5.592,2.695,8.342,4.133c3.395,1.775,6.751,3.624,10.12,5.449 c1.563,0.847,3.119,1.707,4.673,2.57c2.205,1.226,4.422,2.429,6.59,3.716c0.402,0.238,0.831,0.818,0.847,1.255 c0.15,4.017,0.216,8.038,0.298,12.058C95.251,45.333,95.197,45.599,95.158,45.992z"></path> <path fill-rule="evenodd" clip-rule="evenodd" d="M9.008,47.345c-1.416,0-2.816,0-4.359,0c0-0.484,0-0.908,0-1.331 c0-4.234,0.05-8.47-0.03-12.703c-0.024-1.308,0.55-2.094,1.577-2.621c2.978-1.528,6.011-2.949,8.969-4.512 c3.818-2.019,7.578-4.148,11.379-6.201c1.195-0.646,2.456-1.168,3.659-1.798c1.775-0.929,3.503-1.951,5.304-2.823 c0.427-0.207,1.077-0.028,1.604,0.075c0.319,0.063,0.594,0.333,0.898,0.491c2.69,1.401,5.383,2.798,8.309,4.317 c-0.942,0.578-1.722,1.045-2.489,1.531c-0.779,0.493-1.553,0.993-2.316,1.511c-0.729,0.495-1.382,0.281-2.064-0.117 c-1.235-0.72-2.479-1.428-3.75-2.078c-0.189-0.097-0.57,0.123-0.836,0.249c-2.785,1.321-5.596,2.593-8.339,3.996 c-3.087,1.579-6.111,3.281-9.165,4.925c-2.328,1.253-4.671,2.479-6.981,3.762c-0.557,0.31-1.018,0.679-0.982,1.549 C9.49,37.914,9.46,40.27,9.39,42.618C9.344,44.173,9.145,45.722,9.008,47.345z"></path></svg>