<svg version="1.1"
     baseProfile="full"
     width="80" height="80"
     xmlns="http://www.w3.org/2000/svg"
     viewBox="0 0 100 100">
     <symbol id="cauldron" viewBox="0 0 100 100">
<rect x="0" y="0" width="100" height="100" fill="transparent"></rect><path fill-rule="evenodd" clip-rule="evenodd" d="M23.851,39.53c25.22,0,49.992,0,75.07,0 c3.417,14.512-1.509,26.807-11.146,38.675c4.063,3.701,8.136,7.409,12.208,11.118c-0.059,0.202-0.117,0.406-0.175,0.609 c-5.112-1.843-10.3-3.506-15.3-5.61c-2.217-0.934-3.747-1.337-5.764,0.452c-1.569,1.391-3.734,2.138-5.686,3.059 c-4.336,2.044-7.969,3.978-11.843-1.936c-2.627-4.009-8.087-6.102-12.108-9.271c-6.474-5.104-13.507-9.754-18.986-15.791 C25.261,55.479,23.125,48.227,23.851,39.53z M0.339,90.532c5.453-1.938,10.868-4.002,16.386-5.732 c1.472-0.462,3.708-0.529,4.834,0.278c7.568,5.429,15.978,5.46,26.148,4.487c-3.805-4.464-6.795-8.323-10.149-11.835 c-7.514-7.864-14.614-16.001-17.103-26.95c-0.785-3.455-0.512-7.15-0.735-10.937c-4.078,0-7.734-0.015-11.39,0.005 c-6.189,0.031-7.104,0.914-7.286,7.193C0.748,57.39,4.091,66.593,10.397,74.634c2.314,2.95,2.23,4.661-0.762,6.902 c-3.399,2.544-6.438,5.572-9.632,8.391C0.116,90.129,0.228,90.33,0.339,90.532z M98.163,35.867 c-3.199-11.253-4.11-12.062-14.469-11.925c-14.715,0.194-29.429,0.61-44.145,0.842c-7.177,0.112-14.357,0.02-21.536,0.02 c-11.274,0-11.275,0-14.537,10.944c-0.043,0.144,0.025,0.321,0.006,0.119C35.094,35.867,66.5,35.867,98.163,35.867z M47.458,11.195 c-0.706,0.991-0.588,3.812,0.206,4.419c3.831,2.922,6.281,0.349,8.466-2.652C52.999,9.262,49.426,8.434,47.458,11.195z M77.713,16.521c1.005,0.158,3.58-2.323,3.399-3.151c-1.016-4.651-4.6-4.291-8.632-3.228C71.541,14.664,74.577,16.025,77.713,16.521 z M28.872,12.479c0.156-0.308-1.969-2.547-3.049-2.554c-2.676-0.021-5.634,0.749-5.444,4.259c0.064,1.199,1.903,2.302,3.967,4.607 C26.417,16.048,27.899,14.395,28.872,12.479z"></path>
</symbol>
</svg>