<svg version="1.1"
     baseProfile="full"
     width="80" height="80"
     xmlns="http://www.w3.org/2000/svg"
     viewBox="0 0 100 100">
     <symbol id="plus" viewBox="0 0 100 100">
<rect x="0" y="0" width="100" height="100" fill="transparent"></rect><path fill-rule="evenodd" clip-rule="evenodd" d="M0.137,65.183c0-2.288,0-4.388,0-6.651c0.472-0.03,0.931-0.084,1.39-0.085 c3.354-0.008,6.708,0.002,10.062-0.006c3.851-0.009,7.701-0.031,11.551-0.05c0.518-0.002,2.268-1.85,2.268-2.402 c0.003-4.377,0.008-8.755-0.001-13.132c-0.003-1.31-0.612-1.983-1.871-2c-5.296-0.066-10.593-0.114-15.889-0.154 c-2.464-0.019-4.928-0.003-7.525-0.003c-0.016-2.515-0.47-4.8,0.527-6.922c0.202-0.43,1.041-0.732,1.591-0.739 c4.503-0.059,9.007-0.034,13.51-0.034c5.314,0,10.629,0,15.943,0c1.956,0,2.829-0.896,2.832-2.906 c0.012-9.237,0.021-18.475,0.035-27.713c0.003-2.238,0.055-2.285,2.2-2.286c1.74,0,3.479,0,5.255,0 c0.084,0.281,0.192,0.487,0.201,0.698c0.103,2.521,0.244,5.041,0.271,7.562c0.044,4.164-0.006,8.329,0.022,12.493 c0.01,1.317,0.144,2.634,0.23,4.132c0.814,0,1.498,0,2.181,0c3.659,0,7.317,0.001,10.977,0c1.88,0,2.964-1.12,2.967-3.121 c0.009-6.636,0.003-13.271,0.004-19.906c0-0.544,0-1.088,0-1.745c2.492,0,4.855,0,7.344,0c0.025,0.526,0.069,1.017,0.07,1.508 c0.005,6.451-0.025,12.902,0.015,19.354c0.021,3.344,0.155,6.688,0.256,10.032c0.041,1.324,0.792,1.997,2.369,2.162 c0.389,0.041,0.784,0.012,1.176,0.012c9.365,0.001,18.731,0,28.097,0.001c1.805,0,1.807,0.005,1.81,1.917 c0.002,1.61,0.001,3.22,0.001,5.016c-0.578,0.031-1.078,0.08-1.578,0.081c-6.316,0.005-12.633-0.025-18.948,0.024 c-1.488,0.011-2.976,0.286-4.826,0.476c0,3.145-0.031,6.069,0.012,8.992c0.029,2.031,0.18,4.061,0.238,6.091 c0.02,0.68,0.183,0.998,0.891,1.234c1.821,0.608,3.643,0.826,5.549,0.802c5.618-0.067,11.238-0.024,16.858-0.024 c0.519,0,1.037,0,1.68,0c0,2.414,0,4.731,0,7.293c-0.531,0-1.076,0-1.621,0c-9.496,0-18.992-0.001-28.487,0.001 c-1.671,0-3.271,1.154-3.662,2.732c-0.099,0.401,0.165,0.885,0.165,1.331c0.009,10,0.005,19.999-0.001,29.998 c0,0.179-0.049,0.357-0.091,0.655c-2.023,0-4.039,0-6.126,0c-0.045-0.215-0.124-0.429-0.129-0.645 c-0.097-4.271-0.21-8.543-0.268-12.815c-0.042-3.15-0.002-6.301-0.011-9.451c-0.006-1.815-0.839-2.681-2.554-2.681 c-3.702-0.001-7.404-0.001-11.107,0c-2.489,0-3.478,1.02-3.484,3.668c-0.014,5.346,0.026,10.691-0.021,16.036 c-0.018,1.918-0.224,3.835-0.353,5.882c-2.526,0-5.065,0-7.833,0c0-0.567,0-1.144,0-1.721c0-9.769,0.001-19.538-0.001-29.306 c0-2.068-1.555-3.682-3.544-3.683c-9.583-0.002-19.166-0.001-28.749-0.001C1.439,65.183,0.875,65.183,0.137,65.183z M38.39,49.846 c0.521,1.732,0.81,4.036,1.853,5.855c1.72,3.001,4.466,4.871,7.712,5.814c2.818,0.819,5.513,0.224,8.087-0.96 c1.27-0.584,2.582-1.342,3.523-2.378c1.397-1.539,2.699-3.295,3.048-5.502c0.253-1.597,0.518-3.273,0.309-4.844 c-0.172-1.295-1.102-2.458-1.57-3.732c-0.848-2.298-2.679-3.636-4.467-4.845c-2.495-1.689-5.417-1.805-8.284-1.382 c-1.292,0.191-2.712,0.539-3.745,1.309c-1.541,1.148-3.215,2.143-4.239,4.082C39.581,45.226,38.968,47.243,38.39,49.846z"></path> <path fill-rule="evenodd" clip-rule="evenodd" d="M53.916,80.288c0,6.434,0,12.68,0,19.055c-2.032,0-4.049,0-6.199,0 c-0.029-0.434-0.085-0.875-0.085-1.317c-0.006-5.345,0.028-10.691-0.027-16.035c-0.014-1.271,0.409-1.748,1.571-1.714 C50.696,80.321,52.219,80.288,53.916,80.288z"></path> <path fill-rule="evenodd" clip-rule="evenodd" d="M47.366,19.168c0-2.983,0-5.833,0-8.683c0-2.671,0.013-5.343-0.004-8.014 c-0.007-1.056,0.32-1.615,1.442-1.561c1.561,0.075,3.126,0.019,4.91,0.019c0,6.109,0,12.116,0,18.239 C51.6,19.168,49.584,19.168,47.366,19.168z"></path> <path fill-rule="evenodd" clip-rule="evenodd" d="M1.035,46.347c6.252,0,12.246,0,18.351,0c0,2.005,0,3.953,0,6.026 c-0.442,0.031-0.862,0.086-1.282,0.087c-5.205,0.005-10.41-0.033-15.613,0.03c-1.273,0.015-1.736-0.479-1.656-1.76 C0.923,49.29,0.967,47.846,1.035,46.347z"></path> <path fill-rule="evenodd" clip-rule="evenodd" d="M80.891,52.354c0-2.032,0-3.944,0-5.966c6.08,0,12.094,0,18.218,0 c0,1.963,0,3.909,0,5.966C93.071,52.354,87.057,52.354,80.891,52.354z"></path> <path fill-rule="evenodd" clip-rule="evenodd" d="M50.83,56.577c-3.071,0.445-4.874-1.559-6.285-3.903 c-1.747-2.902-0.018-7.576,3.09-8.914c0.771-0.333,1.205-1.113,2.269-1.18c2.341-0.147,5.259,1.315,6.714,3.277 c1.316,1.775,1.295,3.746,0.923,5.549c-0.334,1.618-1,3.458-2.858,4.136c-1.255,0.458-2.497,0.955-3.745,1.435 C50.9,56.843,50.865,56.71,50.83,56.577z"></path>
</symbol>
</svg>